Coordinates
version=1
nRows=8
nColumns=36
inDegrees=yes

Units are S.I. units (second, meters, Newtons, ...)
If the header above contains a line with 'inDegrees', this indicates whether rotational values are in degrees (yes) or radians (no).

endheader
time	pelvis_tilt	pelvis_list	pelvis_rotation	pelvis_tx	pelvis_ty	pelvis_tz	hip_flexion_r	hip_adduction_r	hip_rotation_r	knee_angle_r	knee_angle_r_beta	ankle_angle_r	subtalar_angle_r	mtp_angle_r	hip_flexion_l	hip_adduction_l	hip_rotation_l	knee_angle_l	knee_angle_l_beta	ankle_angle_l	subtalar_angle_l	mtp_angle_l	lumbar_extension	lumbar_bending	lumbar_rotation	arm_flex_r	arm_add_r	arm_rot_r	elbow_flex_r	pro_sup_r	arm_flex_l	arm_add_l	arm_rot_l	elbow_flex_l	pro_sup_l
      4.48333330	     -1.45491188	      1.80589487	      2.32536697	     -0.09855061	      1.05749348	      0.11098043	      4.46348182	     -0.17510575	     -7.02321531	      1.98908932	      0.03471616	      6.92679270	     -4.56398906	     -7.49999987	      5.55164712	      3.75710524	    -10.15434038	      4.66606770	      0.08143824	      4.14433404	     -6.83353754	     -7.49999987	     -2.16625608	     -1.73856405	      3.85953953	     22.33686656	     -1.01083165	      3.76923684	     42.24358562	     74.02160554	     26.54972820	     -5.46850852	     11.08446889	     41.51723669	     75.66238120
      4.50000000	     -1.51085190	      1.85152114	      2.31415640	     -0.09742873	      1.05323180	      0.11122508	      4.78909460	     -0.23251711	     -6.93512067	      2.22091944	      0.03876236	      7.00314325	     -5.14765484	     -7.49999987	      6.16370556	      3.70658123	    -10.25036057	      5.51143123	      0.09619262	      4.72316041	     -6.96929683	     -7.49999987	     -2.53211427	     -1.78151471	      3.84740110	     22.20787397	     -1.20587921	      4.09545909	     41.94315202	     73.28120095	     26.17397597	     -5.50530180	     11.52675834	     41.08953254	     75.21871207
      4.51666670	     -1.71515565	      1.81484868	      2.36859767	     -0.09964442	      1.05151242	      0.11308637	      5.42555417	     -0.15224516	     -6.83720288	      2.58520909	      0.04512041	      7.71747706	     -4.98349826	     -7.49999987	      6.98550469	      3.55943412	    -10.03111781	      6.36157187	      0.11103037	      5.31925126	     -7.36787133	     -7.49999987	     -2.89786405	     -1.79332440	      3.89450725	     21.80999215	     -1.35224751	      3.89332686	     41.68589280	     74.43712349	     25.78128732	     -5.55328221	     11.67425896	     40.48438948	     78.43771920
      4.53333330	     -1.77219298	      1.68500135	      2.51682914	     -0.10214762	      1.04848592	      0.11183316	      5.97909816	     -0.01233927	     -6.59214638	      3.16824111	      0.05529624	      8.22066928	     -5.21652646	     -7.49999987	      7.72123792	      3.29658394	     -9.85849917	      7.46284664	      0.13025125	      5.74394935	     -7.73781674	     -7.49999987	     -3.46141177	     -1.66114284	      3.68153659	     21.48740956	     -1.76003335	      5.00991296	     41.13224114	     71.95812897	     25.38994962	     -5.81480671	     13.19626145	     39.70100523	     75.91971877
      4.55000000	     -1.96720628	      1.58212451	      2.69307993	     -0.10175777	      1.04741664	      0.11033743	      6.72601492	      0.04929402	     -6.54637614	      4.02312093	      0.07021671	      8.76708568	     -5.35258374	     -7.49999987	      8.67426704	      3.11857126	     -9.51865609	      8.68586173	      0.15159689	      6.42054932	     -8.01793343	     -7.49999987	     -3.81675939	     -1.57852625	      3.40636112	     20.68784924	     -1.81546531	      4.12011250	     40.55976321	     75.14288770	     24.39441263	     -5.73632814	     12.36158126	     38.83037941	     80.93067293
      4.56666670	     -1.70234244	      1.47151445	      2.84275968	     -0.09298604	      1.05078211	      0.10809014	      6.50753027	      0.07509904	     -6.49303398	      4.62469180	      0.08071610	      8.79940501	     -5.48075920	     -7.49999987	      8.50213284	      2.98449775	     -9.37399408	      9.24150037	      0.16129461	      6.47031765	     -8.00522147	     -7.49999987	     -4.44256637	     -1.41109209	      3.22053291	     19.21607683	     -2.20375491	      4.09854235	     40.03526026	     75.14455108	     22.71670391	     -5.76657469	     12.51417081	     38.28168495	     80.96365098
      4.58333330	     -1.96256004	      1.16686145	      3.10282909	     -0.08809494	      1.04809578	      0.10697417	      7.10730938	      0.27920534	     -6.53964174	      5.71307048	      0.09971189	      9.36038020	     -5.89665226	     -7.49999987	      9.13829290	      2.64651946	     -9.12426814	     10.46598728	      0.18266594	      7.60454917	     -7.97619481	     -7.49999987	     -4.37610570	     -0.94736737	      2.62685966	     17.57747552	     -2.46318307	      4.21082448	     38.95298982	     74.88603276	     20.68724312	     -5.94324672	     12.77499826	     37.03836746	     80.70586968
      4.60000000	     -1.64021388	      1.10305085	      3.23627342	     -0.08176403	      1.05297627	      0.10569424	      6.53440187	      0.23853472	     -6.50286294	      6.28575908	      0.10970719	      9.34280169	     -5.99014845	     -7.49999987	      8.59832634	      2.55919078	     -9.04136239	     10.89447761	      0.19014450	      7.65894191	     -8.02369847	     -7.49999987	     -4.83925582	     -0.85751127	      2.51424457	     15.24044954	     -2.91313066	      4.19980596	     38.16830866	     74.90128843	     18.31645410	     -6.16662781	     12.93989506	     36.28381705	     80.75088905
